<svg xmlns="http://www.w3.org/2000/svg" width="24" height="25" viewBox="0 0 24 25" fill="none">
<path fill-rule="evenodd" clip-rule="evenodd" d="M12 22.0801C14.6522 22.0801 17.1957 21.0265 19.0711 19.1511C20.9464 17.2758 22 14.7322 22 12.0801C22 9.42791 20.9464 6.88437 19.0711 5.00901C17.1957 3.13365 14.6522 2.08008 12 2.08008C9.34784 2.08008 6.8043 3.13365 4.92893 5.00901C3.05357 6.88437 2 9.42791 2 12.0801C2 14.7322 3.05357 17.2758 4.92893 19.1511C6.8043 21.0265 9.34784 22.0801 12 22.0801ZM16.6337 10.4638C16.8614 10.2281 16.9874 9.91232 16.9846 9.58458C16.9817 9.25683 16.8503 8.94332 16.6185 8.71156C16.3868 8.47979 16.0732 8.34833 15.7455 8.34549C15.4178 8.34264 15.102 8.46863 14.8663 8.69633L10.75 12.8126L9.13375 11.1963C8.898 10.9686 8.58224 10.8426 8.2545 10.8455C7.92675 10.8483 7.61324 10.9798 7.38148 11.2116C7.14972 11.4433 7.01826 11.7568 7.01541 12.0846C7.01256 12.4123 7.13855 12.7281 7.36625 12.9638L9.86625 15.4638C10.1007 15.6982 10.4185 15.8298 10.75 15.8298C11.0815 15.8298 11.3993 15.6982 11.6337 15.4638L16.6337 10.4638Z" fill="#175E22"/>
</svg>