<svg width="42" height="42" viewBox="0 0 42 42" fill="none" xmlns="http://www.w3.org/2000/svg">
<g id="Social Media">
<g id="Youtube">
<g id="Path 22111">
<circle id="Ellipse 390" cx="21" cy="21" r="20.5" stroke="#2D3748"/>
</g>
<g id="Youtube_2">
<path id="Path 1" d="M28.5415 16.5918C27.9749 15.9189 26.9296 15.6445 24.9332 15.6445H17.6849C15.6428 15.6445 14.5788 15.9367 14.0151 16.6535C13.4653 17.3525 13.4653 18.382 13.4653 19.8072V22.5232C13.4653 25.284 14.1187 26.6859 17.6849 26.6859H24.9332C26.6645 26.6859 27.6249 26.4441 28.2456 25.8459C28.8821 25.2364 29.1537 24.2424 29.1537 22.5204V19.8044C29.1537 18.3017 29.1108 17.2657 28.5424 16.59L28.5415 16.5918ZM23.5369 21.5385L20.2451 23.2587C20.1679 23.2991 20.0817 23.319 19.9946 23.3164C19.9076 23.3138 19.8227 23.2888 19.7482 23.2437C19.6736 23.1986 19.612 23.1351 19.5692 23.0592C19.5264 22.9834 19.504 22.8977 19.504 22.8106V19.3816C19.504 19.2947 19.5264 19.2092 19.569 19.1335C19.6116 19.0577 19.673 18.9942 19.7473 18.9491C19.8216 18.904 19.9062 18.8788 19.9931 18.8759C20.0799 18.873 20.1661 18.8926 20.2432 18.9326L23.5351 20.6416C23.6173 20.6843 23.6862 20.7487 23.7342 20.8279C23.7823 20.907 23.8078 20.9979 23.8078 21.0905C23.8078 21.1831 23.7823 21.274 23.7342 21.3532C23.6862 21.4323 23.6173 21.4968 23.5351 21.5394L23.5369 21.5385Z" fill="#2D3748"/>
</g>
</g>
</g>
</svg>
