<svg aria-hidden="true" width="16" height="16" viewBox="0 0 16 16" fill="white" xmlns="http://www.w3.org/2000/svg" class="⚙     as11k as11l as11m as166 as167 as168 as169 ⚙l0cztw"><path fill-rule="evenodd" clip-rule="evenodd" d="M4.75 11.25a.75.75 0 0 1 .75-.75h5a.75.75 0 0 1 0 1.5h-5a.75.75 0 0 1-.75-.75Zm0-3a.75.75 0 0 1 .75-.75h5a.75.75 0 0 1 0 1.5h-5a.75.75 0 0 1-.75-.75Z"></path><path fill-rule="evenodd" clip-rule="evenodd" d="M10.83 2H12a2 2 0 0 1 2 2v10a2 2 0 0 1-2 2H4a2 2 0 0 1-2-2V4a2 2 0 0 1 2-2h1.17a3.001 3.001 0 0 1 5.66 0ZM8 1.5A1.5 1.5 0 0 1 9.5 3v1h-3V3A1.5 1.5 0 0 1 8 1.5Zm3 3a1 1 0 0 1-1 1H6a1 1 0 0 1-1-1v-1H4a.5.5 0 0 0-.5.5v10a.5.5 0 0 0 .5.5h8a.5.5 0 0 0 .5-.5V4a.5.5 0 0 0-.5-.5h-1v1Z"></path></svg>