<svg width="60" height="60" viewBox="0 0 60 60" fill="none" xmlns="http://www.w3.org/2000/svg">
<rect opacity="0.1" width="60" height="60" rx="16" fill="#3F51B5"/>
<path d="M33 28L37.553 25.724C37.7054 25.6478 37.8748 25.6119 38.045 25.6195C38.2152 25.6272 38.3806 25.6782 38.5256 25.7678C38.6706 25.8574 38.7902 25.9825 38.8733 26.1313C38.9563 26.2801 38.9999 26.4476 39 26.618V33.382C38.9999 33.5524 38.9563 33.7199 38.8733 33.8687C38.7902 34.0175 38.6706 34.1426 38.5256 34.2322C38.3806 34.3218 38.2152 34.3728 38.045 34.3805C37.8748 34.3881 37.7054 34.3522 37.553 34.276L33 32V28ZM23 36H31C31.5304 36 32.0391 35.7893 32.4142 35.4142C32.7893 35.0391 33 34.5304 33 34V26C33 25.4696 32.7893 24.9609 32.4142 24.5858C32.0391 24.2107 31.5304 24 31 24H23C22.4696 24 21.9609 24.2107 21.5858 24.5858C21.2107 24.9609 21 25.4696 21 26V34C21 34.5304 21.2107 35.0391 21.5858 35.4142C21.9609 35.7893 22.4696 36 23 36Z" stroke="#3F51B5" stroke-width="2" stroke-linecap="round" stroke-linejoin="round"/>
</svg>
