<svg width="70" height="69" viewBox="0 0 70 69" fill="none" xmlns="http://www.w3.org/2000/svg">
<path fill-rule="evenodd" clip-rule="evenodd" d="M15.05 17.5173C15.05 16.0053 15.6505 14.5552 16.7195 13.486C17.7885 12.4168 19.2383 11.8162 20.75 11.8162H49.25C50.7617 11.8162 52.2115 12.4168 53.2805 13.486C54.3495 14.5552 54.95 16.0053 54.95 17.5173V40.3219C54.95 41.834 54.3495 43.2841 53.2805 44.3532C52.2115 45.4224 50.7617 46.0231 49.25 46.0231H42.923L43.2736 47.417L45.5649 49.7089C45.9634 50.1075 46.2347 50.6154 46.3447 51.1683C46.4546 51.7211 46.3981 52.2942 46.1825 52.815C45.9668 53.3358 45.6016 53.781 45.1331 54.0942C44.6645 54.4074 44.1136 54.5747 43.55 54.5748H26.45C25.8864 54.5747 25.3355 54.4074 24.8669 54.0942C24.3984 53.781 24.0332 53.3358 23.8175 52.815C23.6019 52.2942 23.5454 51.7211 23.6553 51.1683C23.7653 50.6154 24.0366 50.1075 24.4351 49.7089L26.7265 47.417L27.077 46.0231H20.75C19.2383 46.0231 17.7885 45.4224 16.7195 44.3532C15.6505 43.2841 15.05 41.834 15.05 40.3219V17.5173ZM31.4974 37.4713H20.75V17.5173H49.25V37.4713H31.4974Z" fill="#3F51B5"/>
</svg>
