<svg width="70" height="70" viewBox="0 0 70 70" fill="none" xmlns="http://www.w3.org/2000/svg">
<path d="M38.0689 55.0245C38.0692 55.5103 38.1941 55.9881 38.4317 56.4123C38.6694 56.8366 39.0119 57.1934 39.4269 57.4487C39.8418 57.7041 40.3154 57.8496 40.8026 57.8715C41.2899 57.8933 41.7747 57.7908 42.211 57.5736L53.661 51.8708C54.1364 51.6342 54.5363 51.2704 54.8158 50.8201C55.0954 50.3699 55.2436 49.851 55.2439 49.3216V32.8861C55.2437 32.4002 55.1188 31.9225 54.8811 31.4982C54.6435 31.0739 54.3009 30.7172 53.886 30.4618C53.471 30.2065 52.9975 30.0609 52.5102 30.0391C52.023 30.0172 51.5382 30.1197 51.1019 30.3369L39.6519 36.0397C39.1765 36.2764 38.7766 36.6402 38.497 37.0904C38.2174 37.5406 38.0692 38.0595 38.0689 38.5889V55.0245ZM50.1229 24.4459C50.5977 24.2088 50.997 23.8448 51.276 23.3946C51.555 22.9444 51.7028 22.4258 51.7028 21.8967C51.7028 21.3676 51.555 20.849 51.276 20.3988C50.997 19.9486 50.5977 19.5846 50.1229 19.3476L36.486 12.5555C36.0886 12.3577 35.6506 12.2548 35.2064 12.2548C34.7623 12.2548 34.3242 12.3577 33.9269 12.5555L20.2899 19.3476C19.8151 19.5846 19.4158 19.9486 19.1368 20.3988C18.8578 20.849 18.71 21.3676 18.71 21.8967C18.71 22.4258 18.8578 22.9444 19.1368 23.3946C19.4158 23.8448 19.8151 24.2088 20.2899 24.4459L33.9269 31.238C34.3242 31.4357 34.7623 31.5387 35.2064 31.5387C35.6506 31.5387 36.0886 31.4357 36.486 31.238L50.1229 24.4459ZM19.311 30.3369C18.8746 30.1197 18.3899 30.0172 17.9026 30.0391C17.4154 30.0609 16.9418 30.2065 16.5269 30.4618C16.1119 30.7172 15.7694 31.0739 15.5317 31.4982C15.2941 31.9225 15.1692 32.4002 15.1689 32.8861V49.3216C15.1692 49.851 15.3174 50.3699 15.597 50.8201C15.8766 51.2704 16.2765 51.6342 16.7519 51.8708L28.2019 57.5736C28.6382 57.7908 29.123 57.8933 29.6102 57.8715C30.0975 57.8496 30.571 57.7041 30.986 57.4487C31.4009 57.1934 31.7435 56.8366 31.9811 56.4123C32.2188 55.9881 32.3437 55.5103 32.3439 55.0245V38.5889C32.3436 38.0595 32.1954 37.5406 31.9158 37.0904C31.6362 36.6402 31.2364 36.2764 30.761 36.0397L19.311 30.3369Z" fill="#3F51B5"/>
</svg>
