<svg width="60" height="60" viewBox="0 0 60 60" fill="none" xmlns="http://www.w3.org/2000/svg">
<rect opacity="0.1" width="60" height="60" rx="16" fill="#2196F3"/>
<path d="M27.75 35L27 38L26 39H34L33 38L32.25 35H27.75ZM21 31H39H21ZM23 35H37C37.5304 35 38.0391 34.7893 38.4142 34.4142C38.7893 34.0391 39 33.5304 39 33V23C39 22.4696 38.7893 21.9609 38.4142 21.5858C38.0391 21.2107 37.5304 21 37 21H23C22.4696 21 21.9609 21.2107 21.5858 21.5858C21.2107 21.9609 21 22.4696 21 23V33C21 33.5304 21.2107 34.0391 21.5858 34.4142C21.9609 34.7893 22.4696 35 23 35Z" stroke="#2196F3" stroke-width="2" stroke-linecap="round" stroke-linejoin="round"/>
</svg>
