<svg width="50" height="50" viewBox="0 0 50 50" fill="none" xmlns="http://www.w3.org/2000/svg">
<circle cx="25" cy="25" r="25" fill="#377DFF"/>
<path d="M25 19.253C26.168 18.477 27.754 18 29.5 18C31.247 18 32.832 18.477 34 19.253V32.253C32.832 31.477 31.247 31 29.5 31C27.754 31 26.168 31.477 25 32.253M25 19.253V32.253V19.253ZM25 19.253C23.832 18.477 22.246 18 20.5 18C18.754 18 17.168 18.477 16 19.253V32.253C17.168 31.477 18.754 31 20.5 31C22.246 31 23.832 31.477 25 32.253V19.253Z" stroke="white" stroke-width="2" stroke-linecap="round" stroke-linejoin="round"/>
</svg>
