<svg width="50" height="50" viewBox="0 0 50 50" fill="none" xmlns="http://www.w3.org/2000/svg">
<circle cx="25" cy="25" r="25" fill="#377DFF"/>
<path d="M30 33H35V31C34.9999 30.3765 34.8056 29.7686 34.4441 29.2606C34.0826 28.7527 33.5718 28.37 32.9827 28.1658C32.3937 27.9615 31.7556 27.9459 31.1572 28.121C30.5589 28.2962 30.03 28.6534 29.644 29.143M30 33L29.644 29.143M30 33H20M30 33V31C30 30.344 29.874 29.717 29.644 29.143M29.644 29.143C29.2726 28.215 28.6317 27.4195 27.804 26.8591C26.9762 26.2988 25.9996 25.9993 25 25.9993C24.0004 25.9993 23.0237 26.2988 22.196 26.8591C21.3682 27.4195 20.7273 28.215 20.356 29.143M20 33H15V31C15 30.3765 15.1943 29.7686 15.5558 29.2606C15.9174 28.7527 16.4282 28.37 17.0172 28.1658C17.6063 27.9615 18.2444 27.9459 18.8427 28.121C19.4411 28.2962 19.97 28.6534 20.356 29.143M20 33L20.356 29.143M20 33V31C20 30.344 20.126 29.717 20.356 29.143M28 20C28 20.7956 27.6839 21.5587 27.1213 22.1213C26.5587 22.6839 25.7956 23 25 23C24.2043 23 23.4413 22.6839 22.8787 22.1213C22.3161 21.5587 22 20.7956 22 20C22 19.2044 22.3161 18.4413 22.8787 17.8787C23.4413 17.3161 24.2043 17 25 17C25.7956 17 26.5587 17.3161 27.1213 17.8787C27.6839 18.4413 28 19.2044 28 20ZM34 23C34 23.5304 33.7893 24.0391 33.4142 24.4142C33.0391 24.7893 32.5304 25 32 25C31.4696 25 30.9608 24.7893 30.5858 24.4142C30.2107 24.0391 30 23.5304 30 23C30 22.4696 30.2107 21.9609 30.5858 21.5858C30.9608 21.2107 31.4696 21 32 21C32.5304 21 33.0391 21.2107 33.4142 21.5858C33.7893 21.9609 34 22.4696 34 23ZM20 23C20 23.5304 19.7893 24.0391 19.4142 24.4142C19.0391 24.7893 18.5304 25 18 25C17.4696 25 16.9608 24.7893 16.5858 24.4142C16.2107 24.0391 16 23.5304 16 23C16 22.4696 16.2107 21.9609 16.5858 21.5858C16.9608 21.2107 17.4696 21 18 21C18.5304 21 19.0391 21.2107 19.4142 21.5858C19.7893 21.9609 20 22.4696 20 23Z" stroke="white" stroke-width="2" stroke-linecap="round" stroke-linejoin="round"/>
</svg>
