<svg width="50" height="50" viewBox="0 0 50 50" fill="none" xmlns="http://www.w3.org/2000/svg">
<circle cx="25" cy="25" r="25" fill="#377DFF"/>
<path fill-rule="evenodd" clip-rule="evenodd" d="M24.5143 16.1258C24.8164 15.9581 25.1836 15.9581 25.4856 16.1258L34.4856 21.1258C34.8031 21.3022 35 21.6368 35 22C35 22.3632 34.8031 22.6978 34.4856 22.8742L32.3853 24.041C33.0193 26.035 33.1672 28.1564 32.8105 30.2268C32.734 30.6708 32.37 31.0088 31.9216 31.0523C29.5974 31.2779 27.4061 32.2405 25.6676 33.7995C25.2877 34.1402 24.7122 34.1402 24.3323 33.7995C23.623 33.1634 22.8383 32.6265 22 32.1986V33C22 33.5523 21.5523 34 21 34C20.4477 34 20 33.5523 20 33V31.4141C19.375 31.2374 18.7324 31.1158 18.0793 31.0523C17.6309 31.0088 17.2671 30.6708 17.1905 30.2269C16.8336 28.1566 16.9814 26.0353 17.6155 24.0415L15.5143 22.8742C15.1969 22.6978 15 22.3632 15 22C15 21.6368 15.1969 21.3022 15.5143 21.1258L24.5143 16.1258ZM19.4057 25.036C19.0328 26.3765 18.9154 27.7766 19.0611 29.1628C19.3769 29.2132 19.69 29.2751 20 29.3484V25.5C20 25.4565 20.0028 25.4133 20.0083 25.3708L19.4057 25.036ZM22 26.4773V29.9965C23.0702 30.4423 24.0799 31.0314 25 31.7511C26.7282 30.3993 28.7723 29.5084 30.9398 29.1627C31.0854 27.7764 30.9679 26.3763 30.5951 25.0357L25.4973 27.8676L25.4856 27.8742C25.4856 27.8742 25.4856 27.8742 25.4856 27.8742C25.1836 28.0419 24.8164 28.0419 24.5143 27.8742C24.5143 27.8742 24.5143 27.8741 24.5143 27.8741L22 26.4773ZM25 25.856L31.9409 22L25 18.144L18.0591 22L19.3054 22.6924C19.3125 22.6961 19.3196 22.6999 19.3267 22.7039L21.6502 23.9949L24.5144 22.4038C24.9972 22.1356 25.606 22.3096 25.8742 22.7924C26.1424 23.2752 25.9684 23.884 25.4856 24.1522L23.7093 25.1389L25 25.856Z" fill="white"/>
</svg>
