<svg width="69" height="70" viewBox="0 0 69 70" fill="none" xmlns="http://www.w3.org/2000/svg">
<path fill-rule="evenodd" clip-rule="evenodd" d="M23.3077 23.6604V20.809C23.3077 18.5403 24.2085 16.3645 25.8119 14.7602C27.4154 13.156 29.5901 12.2548 31.8577 12.2548H37.5577C39.8253 12.2548 42 13.156 43.6034 14.7602C45.2069 16.3645 46.1077 18.5403 46.1077 20.809V23.6604H51.8077C53.3194 23.6604 54.7692 24.2613 55.8382 25.3307C56.9071 26.4002 57.5077 27.8508 57.5077 29.3633V39.5428C50.2106 42.248 42.4896 43.6289 34.7077 43.6203C26.9258 43.629 19.2047 42.2482 11.9077 39.5428V29.3633C11.9077 27.8508 12.5082 26.4002 13.5772 25.3307C14.6461 24.2613 16.096 23.6604 17.6077 23.6604H23.3077ZM29.0077 20.809C29.0077 20.0528 29.308 19.3275 29.8424 18.7928C30.3769 18.258 31.1018 17.9576 31.8577 17.9576H37.5577C38.3136 17.9576 39.0385 18.258 39.5729 18.7928C40.1074 19.3275 40.4077 20.0528 40.4077 20.809V23.6604H29.0077V20.809ZM31.8577 35.0661C31.8577 34.3098 32.158 33.5846 32.6924 33.0498C33.2269 32.5151 33.9518 32.2147 34.7077 32.2147H34.7362C35.4921 32.2147 36.217 32.5151 36.7514 33.0498C37.2859 33.5846 37.5862 34.3098 37.5862 35.0661C37.5862 35.8223 37.2859 36.5476 36.7514 37.0823C36.217 37.6171 35.4921 37.9175 34.7362 37.9175H34.7077C33.9518 37.9175 33.2269 37.6171 32.6924 37.0823C32.158 36.5476 31.8577 35.8223 31.8577 35.0661Z" fill="#3F51B5"/>
<path d="M11.9077 45.5935V52.1746C11.9077 53.6871 12.5082 55.1376 13.5772 56.2071C14.6461 57.2766 16.096 57.8774 17.6077 57.8774H51.8077C53.3194 57.8774 54.7692 57.2766 55.8382 56.2071C56.9071 55.1376 57.5077 53.6871 57.5077 52.1746V45.5935C50.1614 48.0707 42.46 49.3305 34.7077 49.3232C26.7391 49.3232 19.0697 48.0115 11.9077 45.5935Z" fill="#3F51B5"/>
</svg>
