<svg width="60" height="60" viewBox="0 0 60 60" fill="none" xmlns="http://www.w3.org/2000/svg">
<rect opacity="0.1" width="60" height="60" rx="16" fill="#F9B934"/>
<path d="M21 27C21 26.4696 21.2107 25.9609 21.5858 25.5858C21.9609 25.2107 22.4696 25 23 25H23.93C24.2592 25 24.5833 24.9188 24.8736 24.7636C25.1638 24.6083 25.4113 24.3838 25.594 24.11L26.406 22.89C26.5887 22.6162 26.8362 22.3917 27.1264 22.2364C27.4167 22.0812 27.7408 22 28.07 22H31.93C32.2592 22 32.5833 22.0812 32.8736 22.2364C33.1638 22.3917 33.4113 22.6162 33.594 22.89L34.406 24.11C34.5887 24.3838 34.8362 24.6083 35.1264 24.7636C35.4167 24.9188 35.7408 25 36.07 25H37C37.5304 25 38.0391 25.2107 38.4142 25.5858C38.7893 25.9609 39 26.4696 39 27V36C39 36.5304 38.7893 37.0391 38.4142 37.4142C38.0391 37.7893 37.5304 38 37 38H23C22.4696 38 21.9609 37.7893 21.5858 37.4142C21.2107 37.0391 21 36.5304 21 36V27Z" stroke="#F9B934" stroke-width="2" stroke-linecap="round" stroke-linejoin="round"/>
<path d="M33 31C33 31.7956 32.6839 32.5587 32.1213 33.1213C31.5587 33.6839 30.7956 34 30 34C29.2044 34 28.4413 33.6839 27.8787 33.1213C27.3161 32.5587 27 31.7956 27 31C27 30.2044 27.3161 29.4413 27.8787 28.8787C28.4413 28.3161 29.2044 28 30 28C30.7956 28 31.5587 28.3161 32.1213 28.8787C32.6839 29.4413 33 30.2044 33 31V31Z" stroke="#F9B934" stroke-width="2" stroke-linecap="round" stroke-linejoin="round"/>
</svg>
