<svg width="70" height="70" viewBox="0 0 70 70" fill="none" xmlns="http://www.w3.org/2000/svg">
<path d="M34.7925 16.5319C34.7925 15.3975 35.2433 14.3096 36.0456 13.5075C36.8479 12.7054 37.9361 12.2548 39.0707 12.2548C40.2054 12.2548 41.2935 12.7054 42.0959 13.5075C42.8982 14.3096 43.3489 15.3975 43.3489 16.5319V17.9576C43.3489 18.7138 43.6494 19.4391 44.1843 19.9738C44.7192 20.5086 45.4446 20.809 46.201 20.809H54.7574C55.5138 20.809 56.2393 21.1094 56.7742 21.6442C57.3091 22.1789 57.6095 22.9042 57.6095 23.6604V32.2147C57.6095 32.9709 57.3091 33.6962 56.7742 34.2309C56.2393 34.7657 55.5138 35.0661 54.7574 35.0661H53.3313C52.1967 35.0661 51.1085 35.5167 50.3062 36.3188C49.5039 37.1209 49.0532 38.2088 49.0532 39.3432C49.0532 40.4776 49.5039 41.5655 50.3062 42.3676C51.1085 43.1697 52.1967 43.6203 53.3313 43.6203H54.7574C55.5138 43.6203 56.2393 43.9207 56.7742 44.4555C57.3091 44.9902 57.6095 45.7155 57.6095 46.4717V55.026C57.6095 55.7822 57.3091 56.5075 56.7742 57.0422C56.2393 57.577 55.5138 57.8774 54.7574 57.8774H46.201C45.4446 57.8774 44.7192 57.577 44.1843 57.0422C43.6494 56.5075 43.3489 55.7822 43.3489 55.026V53.6003C43.3489 52.4659 42.8982 51.378 42.0959 50.5759C41.2935 49.7738 40.2054 49.3232 39.0707 49.3232C37.9361 49.3232 36.8479 49.7738 36.0456 50.5759C35.2433 51.378 34.7925 52.4659 34.7925 53.6003V55.026C34.7925 55.7822 34.492 56.5075 33.9572 57.0422C33.4223 57.577 32.6968 57.8774 31.9404 57.8774H23.384C22.6276 57.8774 21.9021 57.577 21.3673 57.0422C20.8324 56.5075 20.5319 55.7822 20.5319 55.026V46.4717C20.5319 45.7155 20.2314 44.9902 19.6965 44.4555C19.1616 43.9207 18.4362 43.6203 17.6798 43.6203H16.2537C15.1191 43.6203 14.0309 43.1697 13.2286 42.3676C12.4263 41.5655 11.9755 40.4776 11.9755 39.3432C11.9755 38.2088 12.4263 37.1209 13.2286 36.3188C14.0309 35.5167 15.1191 35.0661 16.2537 35.0661H17.6798C18.4362 35.0661 19.1616 34.7657 19.6965 34.2309C20.2314 33.6962 20.5319 32.9709 20.5319 32.2147V23.6604C20.5319 22.9042 20.8324 22.1789 21.3673 21.6442C21.9021 21.1094 22.6276 20.809 23.384 20.809H31.9404C32.6968 20.809 33.4223 20.5086 33.9572 19.9738C34.492 19.4391 34.7925 18.7138 34.7925 17.9576V16.5319Z" fill="#3F51B5"/>
</svg>
